<svg width='24' height='24' viewBox='0 0 24 24' xmlns='http://www.w3.org/2000/svg' xmlns:xlink='http://www.w3.org/1999/xlink'><rect width='24' height='24' stroke='none' fill='#000000' opacity='0'/>


<g transform="matrix(0.83 0 0 0.83 12 12)" >
<path style="stroke: none; stroke-width: 1; stroke-dasharray: none; stroke-linecap: butt; stroke-dashoffset: 0; stroke-linejoin: miter; stroke-miterlimit: 4; fill: rgb(0,0,0); fill-rule: nonzero; opacity: 1;" transform=" translate(-12, -12)" d="M 12 0 C 5.3725830020304794 0 0 5.3725830020304794 0 12 C 0 18.62741699796952 5.3725830020304794 24 12 24 C 18.62741699796952 24 24 18.62741699796952 24 12 C 24 5.3725830020304794 18.62741699796952 0 12 0 Z M 6 17.08 L 7.11 14.29 C 7.138356490896098 14.22836902782405 7.175399772870096 14.17112031931878 7.220000000000001 14.12 L 13.11 8.23 C 13.307813676736046 8.038216709623457 13.622186323263954 8.038216709623457 13.82 8.23 L 15.54 9.9 C 15.628799876815302 9.995049963841957 15.678751659871802 10.119929421483201 15.68 10.25 C 15.681286356228282 10.383524251534146 15.631157799864296 10.512426253612968 15.54 10.61 L 9.65 16.5 C 9.602425645166452 16.54910512230073 9.54428733500612 16.58672402887506 9.48 16.61 L 6.69 17.73 C 6.503978920484899 17.80211230897478 6.292989626006807 17.759133008247762 6.15 17.62 C 5.989197849757235 17.49090683325292 5.928816410005408 17.27353365014634 6 17.08 Z M 17.73 8.379999999999999 L 16.89 9.209999999999999 C 16.79832690997309 9.305141084450954 16.672118088758907 9.359230579257032 16.54 9.36 C 16.407396139588982 9.361616547559308 16.280280334809476 9.307138345510948 16.189999999999998 9.209999999999999 L 14.55 7.54 C 14.455343674588452 7.446116700047222 14.402100837829165 7.3183187681852795 14.402100837829165 7.1850000000000005 C 14.402100837829165 7.051681231814721 14.455343674588452 6.923883299952778 14.55 6.83 L 15.39 6 C 15.707726149715091 5.687939120260813 16.134660457664058 5.512142640517119 16.580000000000002 5.51 L 16.580000000000002 5.51 C 17.26043637405247 5.514014576311263 17.872098649987752 5.925715963606179 18.131947767054974 6.554594499029368 C 18.391796884122193 7.183473034452557 18.249144019337542 7.906853247253283 17.770000000000003 8.39 Z" stroke-linecap="round" />
</g>
</svg>